{"asset":{"version":"2.0","generator":"Blockbench 4.8.3 glTF exporter"},"scenes":[{"nodes":[3],"name":"blockbench_export"}],"scene":0,"nodes":[{"name":"cylinder","mesh":0},{"name":"tube","mesh":1},{"name":"coin","children":[0,1]},{"children":[2]}],"bufferViews":[{"buffer":0,"byteOffset":0,"byteLength":1920,"target":34962,"byteStride":12},{"buffer":0,"byteOffset":1920,"byteLength":1920,"target":34962,"byteStride":12},{"buffer":0,"byteOffset":3840,"byteLength":1280,"target":34962,"byteStride":8},{"buffer":0,"byteOffset":5120,"byteLength":384,"target":34963},{"buffer":0,"byteOffset":5504,"byteLength":3072,"target":34962,"byteStride":12},{"buffer":0,"byteOffset":8576,"byteLength":3072,"target":34962,"byteStride":12},{"buffer":0,"byteOffset":11648,"byteLength":2048,"target":34962,"byteStride":8},{"buffer":0,"byteOffset":13696,"byteLength":768,"target":34963}],"buffers":[{"byteLength":14464,"uri":"data:application/octet-stream;base64,"}],"accessors":[{"bufferView":0,"componentType":5126,"count":160,"max":[0.375,0.09375,0.375],"min":[-0.375,0.03125,-0.375],"type":"VEC3"},{"bufferView":1,"componentType":5126,"count":160,"max":[1,1,1],"min":[-1,-1,-1],"type":"VEC3"},{"bufferView":2,"componentType":5126,"count":160,"max":[0.5776171684265137,0.546875],"min":[0,0],"type":"VEC2"},{"bufferView":3,"componentType":5123,"count":192,"max":[159],"min":[0],"type":"SCALAR"},{"bufferView":4,"componentType":5126,"count":256,"max":[0.40625,0.125,0.40625],"min":[-0.40625,0,-0.40625],"type":"VEC3"},{"bufferView":5,"componentType":5126,"count":256,"max":[1,1,1],"min":[-1,-1,-1],"type":"VEC3"},{"bufferView":6,"componentType":5126,"count":256,"max":[0.5775703191757202,0.40625],"min":[0,0],"type":"VEC2"},{"bufferView":7,"componentType":5123,"count":384,"max":[255],"min":[0],"type":"SCALAR"}],"materials":[{"pbrMetallicRoughness":{"metallicFactor":0,"roughnessFactor":1,"baseColorTexture":{"index":0}},"alphaMode":"MASK","alphaCutoff":0.05,"doubleSided":true}],"textures":[{"sampler":0,"source":0,"name":"texture.png"}],"samplers":[{"magFilter":9728,"minFilter":9728,"wrapS":33071,"wrapT":33071}],"images":[{"mimeType":"image/png","uri":"data:image/png;base64,"}],"meshes":[{"primitives":[{"mode":4,"attributes":{"POSITION":0,"NORMAL":1,"TEXCOORD_0":2},"indices":3,"material":0}]},{"primitives":[{"mode":4,"attributes":{"POSITION":4,"NORMAL":5,"TEXCOORD_0":6},"indices":7,"material":0}]}]}